<svg id="Layer_1" enable-background="new 0 0 512 512" height="512" viewBox="0 0 512 512" width="512" xmlns="http://www.w3.org/2000/svg"><g><path fill="#fff" d="m208.5 60c-3.844 20.358-12.291 39.817-24.752 56.44-7.922 10.568-14.52 22.075-19.692 34.185h183.887c-5.171-12.11-11.77-23.616-19.692-34.185-12.46-16.623-20.907-36.082-24.751-56.44z"/><path fill="#fff" d="m154.464 180.625c-2.528 11.548-3.839 23.369-3.839 35.225v239.962c0 30.982 25.206 56.188 56.188 56.188h98.375c30.981 0 56.188-25.206 56.188-56.188v-239.962c0-11.856-1.311-23.677-3.839-35.225z"/><path fill="#fff" d="m300 30h1.125v-.057c7.757-.577 13.875-7.039 13.875-14.943 0-8.284-6.716-15-15-15h-88c-8.284 0-15 6.716-15 15 0 7.904 6.118 14.366 13.875 14.943v.057h1.125z"/></g></svg>